<svg width="28" height="21" fill="none" xmlns="http://www.w3.org/2000/svg"><path d="M27.49 2.5c-.98.4-2.05.7-3.15.81 1.14-.65 2-1.7 2.4-2.92a10.98 10.98 0 0 1-3.46 1.28 5.45 5.45 0 0 0-4-1.67 5.38 5.38 0 0 0-5.32 6.51A15.68 15.68 0 0 1 2.7.97a5.26 5.26 0 0 0 1.7 7.09 5.64 5.64 0 0 1-2.48-.68v.07a5.34 5.34 0 0 0 4.38 5.2 5.95 5.95 0 0 1-2.47.1c.7 2.1 2.7 3.62 5.1 3.67a11.16 11.16 0 0 1-8.1 2.2C3.27 20.13 6.14 21 9.24 21A15.2 15.2 0 0 0 24.76 5.92l-.01-.69c1.06-.75 2-1.69 2.74-2.74Z" fill="#fff"/></svg>