<svg width="143" height="59" fill="none" xmlns="http://www.w3.org/2000/svg"><path d="M0 29.5A29.5 29.5 0 0 1 29.5 0h108.01a2 2 0 0 1 1.29 3.53L117 21.84a10 10 0 0 0 0 15.32l21.8 18.3A2 2 0 0 1 137.5 59H29.5A29.5 29.5 0 0 1 0 29.5Z" fill="#FF1640"/><path d="M18.88 19.8h7.6L31.45 37h-5.88l-.64-3.3h-4.45l-.73 3.3h-5.63l4.76-17.2Zm5.45 10.82L22.7 23.1 21 30.62h3.32ZM33.1 19.8h5.4v13.4h5.97V37H33.11V19.8Zm13.45 0h6.2c2.56 0 4.55.5 5.95 1.5 1.41 1 2.12 2.4 2.12 4.2 0 1.13-.35 2.13-1.05 2.98a6.6 6.6 0 0 1-2.82 1.97c-1.19.45-2.5.68-3.95.68h-1.05V37h-5.4V19.8Zm6.47 7.85c.89 0 1.57-.18 2.05-.55.49-.37.73-.9.73-1.6 0-.7-.24-1.23-.73-1.57a3.38 3.38 0 0 0-2.05-.53h-1.07v4.2c.33.03.69.05 1.07.05Zm9.76-7.85h5.78V37h-5.78V19.8Zm9.04 0h5.02l6.85 9.27V19.8h4.48V37h-5l-6.9-8.95V37h-4.45V19.8Zm19.6 0h12.08v3.8h-6v3.13h5.47v3.14h-5.47v3.33h6V37H91.43V19.8Z" fill="#fff"/></svg>