<svg width="22" height="21" fill="none" xmlns="http://www.w3.org/2000/svg"><path d="M6.48 9.45c-.21 0-.42.06-.6.18a1.03 1.03 0 0 0-.16 1.62 1.08 1.08 0 0 0 1.17.22c.2-.08.36-.21.48-.39a1.03 1.03 0 0 0-.13-1.32c-.2-.2-.48-.31-.76-.31Zm4.3 0c-.22 0-.42.06-.6.18a1.03 1.03 0 0 0-.16 1.62 1.08 1.08 0 0 0 1.17.22c.2-.08.36-.21.48-.39a1.03 1.03 0 0 0-.13-1.32c-.2-.2-.48-.31-.76-.31Zm4.3 0c-.22 0-.43.06-.6.18a1.05 1.05 0 0 0-.46 1.07 1.08 1.08 0 0 0 1.47.77c.2-.08.36-.21.48-.39a1.03 1.03 0 0 0-.14-1.32c-.2-.2-.47-.31-.76-.31ZM10.77 0a10.97 10.97 0 0 0-7.6 3.08A10.38 10.38 0 0 0 .03 10.5c0 2.42.85 4.78 2.43 6.65L.3 19.25a1.04 1.04 0 0 0-.23 1.14c.1.19.24.35.42.46.18.1.4.16.6.15h9.68c2.85 0 5.58-1.1 7.6-3.08a10.38 10.38 0 0 0 3.14-7.42c0-2.78-1.13-5.46-3.14-7.42A10.88 10.88 0 0 0 10.78 0Zm0 18.9H3.69l1-.98a1.05 1.05 0 0 0 .33-.74c0-.28-.12-.54-.33-.74a8.25 8.25 0 0 1-1.08-10.6 8.58 8.58 0 0 1 4.66-3.38 8.79 8.79 0 0 1 5.78.28 8.53 8.53 0 0 1 4.3 3.8 8.23 8.23 0 0 1-2.12 10.45 8.72 8.72 0 0 1-5.45 1.9Z" fill="#fff"/></svg>