<svg width="36" height="20" fill="none" xmlns="http://www.w3.org/2000/svg"><path fill-rule="evenodd" clip-rule="evenodd" d="M31.24 14.02s2.82 2.8 3.51 4.09c.02.01.03.04.03.06.29.47.36.85.22 1.13-.24.45-1.03.68-1.3.7h-4.98c-.35 0-1.07-.1-1.95-.7a12.1 12.1 0 0 1-1.98-2c-.97-1.13-1.8-2.1-2.65-2.1-.1 0-.21.01-.31.05-.64.2-1.45 1.12-1.45 3.55 0 .77-.6 1.2-1.02 1.2h-2.28c-.78 0-4.83-.27-8.41-4.07C4.27 11.28.32 1.95.28 1.87c-.24-.6.27-.93.83-.93h5.03c.67 0 .9.4 1.05.78.17.42.83 2.1 1.91 4 1.75 3.08 2.83 4.33 3.69 4.33.16 0 .32-.04.46-.12 1.12-.62.91-4.64.86-5.47 0-.16 0-1.8-.58-2.59A2.47 2.47 0 0 0 12 1.01c.1-.17.35-.42.66-.57C13.43.06 14.8 0 16.19 0h.77c1.5.02 1.88.12 2.42.26 1.1.26 1.12.97 1.02 3.4-.03.69-.06 1.47-.06 2.39v.63c-.04 1.25-.08 2.65.8 3.22.1.07.24.11.37.11.3 0 1.21 0 3.68-4.24a31.66 31.66 0 0 0 1.97-4.25c.05-.1.2-.35.37-.46.13-.07.27-.1.41-.1h5.92c.64 0 1.08.1 1.17.35.14.4-.03 1.6-2.73 5.27l-1.2 1.6c-2.45 3.23-2.45 3.4.14 5.84Z" fill="#fff"/></svg>